:SAMPLES-PER-SECOND 30
:FULLY-SPECIFIED
:DEGREES
98
root  34.72085487 36.5544567 -14.25657948 10.06085491 -5.874604702 3.790202856
lowerback  -7.728970528 -0.707676053 -1.422730207
upperback  -4.235199928 -0.3075670004 -4.16023016
thorax  -0.05724810064 0.04266300052 -3.522670031
lowerneck  -4.289350033 -15.41800022 -10.7407999
upperneck  8.850250244 -21.05900002 11.32180023
head  5.702750206 -10.07349968 3.471590042
lclavicle  0 -4.497500157e-015 -2.743230041e-014
lhumerus  -48.24649811 29.39699936 62.32440186
lradius  0.006001632661 -6.507048965e-006 29.86529922
lwrist  4.824992743e-007 -3.790274832e-007 -28.89290047
lhand  -4.421331342e-031 -36.9980011 -10.61380005
lfingers  90 7.125020027 -90
lthumb  94.84887814 -25.44722039 101.1682619
rclavicle  0 -4.497500157e-015 -2.743230041e-014
rhumerus  -6.603700638 -36.84809494 -34.01530075
rradius  -5.16745672e-007 2.214343908e-008 103.9540024
rwrist  -2.867388866e-005 0.1055019498 -178.352005
rhand  -1.770404001e-031 4.238279819 -6.695139885
rfingers  -90 -7.125020027 -90
rthumb  -84.68448373 -9.24609588 -59.92666512
rfemur  -12.14818192 14.7675724 12.23323822
rtibia  -0.4372537136 -1.926953793 18.91650772
rfoot  1.429623127 -23.16232109 -33.61924362
rtoes  4.174742371 19.57690822 -102.2893462
lfemur  -5.083363533 -16.07651711 -22.40668488
ltibia  6.114907742 -0.7541288137 8.962319374
lfoot  0.8176484704 -21.2002449 37.07572556
ltoes  -8.468054107 -18.18570479 -115.5026884
99
root  34.72080982 36.55435457 -14.25243288 10.0773983 -5.846093178 3.799719572
lowerback  -7.699259758 -0.7067710161 -1.384140253
upperback  -4.199790001 -0.3125970066 -4.171740055
thorax  -0.03771600127 0.0431211032 -3.556570053
lowerneck  -4.413229942 -15.45440006 -10.82209969
upperneck  8.861180305 -21.10560036 11.39120007
head  5.748149872 -10.08950043 3.484980106
lclavicle  0 -4.497500157e-015 -2.743230041e-014
lhumerus  -48.21920013 29.55970001 62.27180099
lradius  0.006001632661 -6.507048965e-006 29.83500099
lwrist  4.824992743e-007 -3.790274832e-007 -28.95779991
lhand  -0 -37.04859924 -10.65470028
lfingers  90 7.125020027 -90
lthumb  94.88130163 -25.48556652 101.2260135
rclavicle  0 -4.497500157e-015 -2.743230041e-014
rhumerus  -5.080338955 -37.27420044 -34.08420181
rradius  -5.16745672e-007 2.214343908e-008 102.6200027
rwrist  -2.867388866e-005 0.1051167101 -178.3139954
rhand  -1.770559926e-031 4.305830002 -6.661159992
rfingers  -90 -7.125020027 -90
rthumb  -84.6509503 -9.279388127 -59.85798257
rfemur  -12.13352203 14.74200916 12.2192173
rtibia  -0.4354073405 -1.958777308 18.87521553
rfoot  1.433048606 -23.20166016 -33.64002228
rtoes  4.164597786 19.57898771 -102.2590719
lfemur  -5.187585831 -16.1240654 -22.38070869
ltibia  6.049099922 -0.772480011 9.107460022
lfoot  0.8198268414 -21.22795868 37.02991867
ltoes  -8.454794545 -18.19170826 -115.4602099
100
root  34.72100506 36.55449274 -14.24888701 10.08647442 -5.810797215 3.832317114
lowerback  -7.713429928 -0.7018529773 -1.347170115
upperback  -4.178110123 -0.3085280061 -4.18200016
thorax  -0.007676130161 0.03872309998 -3.587949991
lowerneck  -4.421309948 -15.48799992 -10.86060047
upperneck  8.811510086 -21.15229988 11.45240021
head  5.750179768 -10.11069965 3.50206995
lclavicle  0 -4.497500157e-015 -2.743230041e-014
lhumerus  -48.2120018 29.60840034 62.23149872
lradius  0.006001632661 -6.507048965e-006 29.81909943
lwrist  4.824992743e-007 -3.790274832e-007 -28.95940018
lhand  -4.424510343e-031 -37.05260086 -10.66870022
lfingers  90 7.125020027 -90
lthumb  94.88621767 -25.49916291 101.2316364
rclavicle  0 -4.497500157e-015 -2.743230041e-014
rhumerus  -3.502000093 -37.62369919 -34.03170013
rradius  -5.16745672e-007 2.214343908e-008 101.2030029
rwrist  -2.867388866e-005 0.1047285795 -178.3049927
rhand  -1.770450897e-031 4.258709908 -6.59758997
rfingers  -90 -7.125020027 -90
rthumb  -84.63000122 -9.331673117 -59.89870954
rfemur  -12.14460564 14.68215752 12.19542789
rtibia  -0.4522476494 -1.982418776 18.90023613
rfoot  1.418428659 -23.23110008 -33.6318512
rtoes  4.195169672 19.57270478 -102.3503164
lfemur  -5.108205318 -16.06305504 -22.45085907
ltibia  6.135305405 -0.7584642172 8.943761826
lfoot  0.8111383319 -21.20385361 36.96183014
ltoes  -8.496603157 -18.17273913 -115.5941945
101
root  34.72215547 36.55934371 -14.23211886 10.05105114 -5.685526371 3.820974827
lowerback  -7.654079914 -0.719174087 -1.386370301
upperback  -4.197879791 -0.326700002 -4.218570232
thorax  -0.06183480099 0.03186009824 -3.60491991
lowerneck  -4.406599998 -15.52560043 -10.84200001
upperneck  8.746999741 -21.20700073 11.50370026
head  5.737569809 -10.13529968 3.510689974
lclavicle  0 -4.497500157e-015 -2.743230041e-014
lhumerus  -48.17779922 29.66220093 62.14009857
lradius  0.006001632661 -6.507048965e-006 29.78170204
lwrist  4.824992743e-007 -3.790274832e-007 -29.10029984
lhand  -0 -37.03239822 -10.66709995
lfingers  90 7.125020027 -90
lthumb  94.87641191 -25.49836945 101.2098786
rclavicle  0 -4.497500157e-015 -2.743230041e-014
rhumerus  -2.125677824 -37.94380188 -33.87210464
rradius  -5.16745672e-007 2.214343908e-008 99.91809845
rwrist  -2.867388866e-005 0.1043375954 -178.3899994
rhand  -1.770610053e-031 4.327320099 -6.290150166
rfingers  -90 -7.125020027 -90
rthumb  -84.45665499 -9.60138075 -59.80588321
rfemur  -12.01750851 14.64672279 12.21100616
rtibia  -0.4195975959 -1.949040651 18.79875565
rfoot  1.447224498 -23.15955162 -33.69774246
rtoes  4.193254943 19.5730997 -102.3446009
lfemur  -4.917660236 -15.96579361 -22.5208168
ltibia  6.246121883 -0.7068023682 8.719798088
lfoot  0.7735033035 -21.25224304 36.78235245
ltoes  -8.447187085 -18.19514739 -115.4358446
102
root  34.72424304 36.56098974 -14.229387 10.05703259 -5.662790775 3.841712713
lowerback  -7.684629917 -0.6921550035 -1.366289854
upperback  -4.174940109 -0.2891649902 -4.248589993
thorax  -0.01964939944 0.05041389912 -3.64496994
lowerneck  -4.37237978 -15.56369972 -10.8178997
upperneck  8.644339561 -21.25959969 11.54249954
head  5.707590103 -10.16180038 3.518110037
lclavicle  0 -4.497500157e-015 -2.743230041e-014
lhumerus  -48.16579819 29.83230019 62.00939941
lradius  0.006001632661 -6.507048965e-006 29.71829987
lwrist  4.824992743e-007 -3.790274832e-007 -29.32080078
lhand  -4.421191834e-031 -36.99560165 -10.65089989
lfingers  90 7.125020027 -90
lthumb  94.8556777 -25.48372326 101.1690269
rclavicle  0 -4.497500157e-015 -2.743230041e-014
rhumerus  -0.8209705949 -38.2643013 -33.8628006
rradius  -5.16745672e-007 2.214343908e-008 98.62480164
rwrist  -2.867388866e-005 0.1039438024 -178.098999
rhand  -0 4.159510136 -6.280340195
rfingers  -90 -7.125020027 -90
rthumb  -84.4931427 -9.600629119 -59.96919122
rfemur  -12.05530262 14.69693661 12.20092201
rtibia  -0.4408744276 -1.912282228 18.86193848
rfoot  1.429320931 -23.07706642 -33.73368835
rtoes  4.165945556 19.57871174 -102.2630938
lfemur  -4.763740063 -15.95912457 -22.6157093
ltibia  6.375367641 -0.7071490288 8.460216522
lfoot  0.7553791404 -21.15282249 36.77790833
ltoes  -8.460709945 -18.18903141 -115.4791589
103
root  34.72362729 36.5625847 -14.22858201 10.08723068 -5.650706768 3.848144293
lowerback  -7.708849907 -0.657730937 -1.321920037
upperback  -4.135640144 -0.2440569997 -4.292379856
thorax  0.03614709899 0.07186040282 -3.712470055
lowerneck  -4.381639957 -15.6008997 -10.80210018
upperneck  8.57104969 -21.31110191 11.5934
head  5.696090221 -10.18449974 3.525660038
lclavicle  0 -4.497500157e-015 -2.743230041e-014
lhumerus  -48.14870071 29.95829964 61.91579819
lradius  0.006001632661 -6.507048965e-006 29.69109917
lwrist  4.824992743e-007 -3.790274832e-007 -29.53409958
lhand  -4.422221343e-031 -37.01330185 -10.68669987
lfingers  90 7.125020027 -90
lthumb  94.87164137 -25.51828474 101.1911885
rclavicle  0 -4.497500157e-015 -2.743230041e-014
rhumerus  0.5006039143 -38.58350372 -33.89379883
rradius  -5.16745672e-007 2.214343908e-008 97.23349762
rwrist  -2.867388866e-005 0.1035472229 -177.4309998
rhand  -0 4.011980057 -6.147079945
rfingers  -90 -7.125020027 -90
rthumb  -84.46208221 -9.708098384 -60.10224362
rfemur  -12.10537529 14.66653156 12.19561863
rtibia  -0.4520919621 -1.910322905 18.89337921
rfoot  1.426930189 -23.0606823 -33.7065773
rtoes  4.170663246 19.57774502 -102.2771725
lfemur  -4.725316048 -15.97485256 -22.63547516
ltibia  6.432747841 -0.6995821595 8.345170975
lfoot  0.7643776536 -21.11313057 36.82430267
ltoes  -8.470198361 -18.18473285 -115.509559
104
root  34.72421301 36.56232338 -14.22741657 10.08512497 -5.628553867 3.865020037
lowerback  -7.761670113 -0.6326160431 -1.309570432
upperback  -4.106989861 -0.2080329955 -4.314499855
thorax  0.09672590345 0.08976709843 -3.740080118
lowerneck  -4.39098978 -15.63679981 -10.80930042
upperneck  8.516050339 -21.36090088 11.64410019
head  5.692619801 -10.20670033 3.535550117
lclavicle  0 -4.497500157e-015 -2.743230041e-014
lhumerus  -48.11380005 30.0333004 61.87099838
lradius  0.006001632661 -6.507048965e-006 29.64699745
lwrist  4.824992743e-007 -3.790274832e-007 -29.65670013
lhand  -4.415797261e-031 -36.90259933 -10.62209988
lfingers  90 7.125020027 -90
lthumb  94.80606035 -25.4588941 101.0670124
rclavicle  0 -4.497500157e-015 -2.743230041e-014
rhumerus  1.983049154 -38.91180038 -33.84260178
rradius  -5.16745672e-007 2.214343908e-008 95.66059875
rwrist  -2.867388866e-005 0.1031109095 -177.1239929
rhand  -1.769975617e-031 4.046840191 -6.070370197
rfingers  -90 -7.125020027 -90
rthumb  -84.41459134 -9.77646336 -60.06154169
rfemur  -12.10849476 14.67275143 12.18934441
rtibia  -0.4631171227 -1.907853961 18.91700745
rfoot  1.41833961 -23.05174065 -33.71888351
rtoes  4.200275841 19.57165068 -102.365559
lfemur  -4.656720638 -16.01724243 -22.68697929
ltibia  6.486043453 -0.7170630097 8.243483543
lfoot  0.7512896061 -21.04462814 36.81613159
ltoes  -8.449040587 -18.19430982 -115.4417806
